<svg xmlns="http://www.w3.org/2000/svg" version="1.1" xmlns:xlink="http://www.w3.org/1999/xlink" xmlns:svgjs="http://svgjs.com/svgjs" width="260px" height="260px"><svg width="260px" height="260px" viewBox="0 0 260 260" version="1.1" xmlns="http://www.w3.org/2000/svg" xmlns:xlink="http://www.w3.org/1999/xlink">
    <title>favicon@1x</title>
    <g id="SvgjsG1002" stroke="none" stroke-width="1" fill="none" fill-rule="evenodd">
        <g id="SvgjsG1001" fill="#000000" fill-rule="nonzero">
            <path d="M0,130 C0,106.335938 6.34765625,84.09375 17.4179688,64.5429688 L73.1757812,161.636719 C84.296875,181.542969 105.574219,195 130,195 C137.261719,195 143.761719,193.832031 150.71875,191.648438 L111.972656,258.78125 C48.6992188,249.996094 0,195.660156 0,130 Z M185.402344,163.3125 C191.648438,153.5625 195,141.730469 195,130 C195,110.601562 186.46875,93.1835938 173.011719,81.25 L250.554688,81.25 C256.648438,96.28125 260,112.785156 260,130 C260,201.804688 201.804688,259.542969 130,260 L185.402344,163.3125 Z M242.632812,65 L130,65 C98.0585937,65 72.2617188,87.3945312 66.2695312,117.152344 L27.5234375,50.0195312 C51.2890625,19.5507812 88.359375,0 130,0 C178.140625,0 220.136719,26.1523438 242.632812,65 L242.632812,65 Z M85.3125,130 C85.3125,105.320312 105.320312,85.3125 130,85.3125 C154.679688,85.3125 174.6875,105.320312 174.6875,130 C174.6875,154.679688 154.679688,174.6875 130,174.6875 C105.320312,174.6875 85.3125,154.679688 85.3125,130 Z" id="SvgjsPath1000"></path>
        </g>
    </g>
</svg><style>@media (prefers-color-scheme: light) { :root { filter: none; } }
@media (prefers-color-scheme: dark) { :root { filter: invert(100%); } }
</style></svg>